<svg width="500" height="342" viewBox="0 0 500 342" fill="none" xmlns="http://www.w3.org/2000/svg">
<path d="M257.409 337.68L490.275 200.046C497.689 195.879 504.056 189.121 496.815 184.564L263.121 49.8787C259.61 47.7094 254.288 46.2892 250.729 48.318L6.26742 190.229C-1.14573 194.536 -2.47229 206.554 4.94085 210.861L226.68 337.462C231.34 340.17 236.626 341.614 242.015 341.652C247.405 341.691 252.711 340.322 257.409 337.68Z" fill="#88BC46"/>
<path d="M450.026 223.768L186.102 70.4326L168.904 80.6862L432.656 234.099L450.026 223.768Z" fill="#606060"/>
<path d="M335.676 291.422L83.7075 145.017L66.5246 155.27L318.275 301.707L335.676 291.422Z" fill="#606060"/>
<path d="M61.6709 243.292L329.356 87.7716L346.538 98.0095L79.4 253.405L61.6709 243.292Z" fill="#606060"/>
<path d="M176.52 308.652L444.189 153.116L461.388 163.37L194.234 318.765L176.52 308.652Z" fill="#606060"/>
<path d="M37.9332 183.628C37.9332 182.542 37.0528 181.661 35.9668 181.661C34.8808 181.661 34.0004 182.542 34.0004 183.628V205.82C34.0004 206.906 34.8808 207.787 35.9668 207.787C37.0528 207.787 37.9332 206.906 37.9332 205.82V183.628Z" fill="#BC532A"/>
<path d="M45.6429 187.014C44.7377 183.066 40.6956 165.711 33.5478 170.815C29.8802 173.437 28.8658 177.51 27.3051 181.521C25.9736 184.819 25.2034 188.316 25.0266 191.868C24.9173 199.094 32.268 199.983 37.8864 199.952C41.1326 199.952 45.6897 198.017 46.5169 194.505C46.7115 192.239 46.4461 189.956 45.7366 187.795L45.6429 187.014Z" fill="#2C9135"/>
<path d="M46.0487 187.779L45.877 187.014C45.0655 183.534 41.8193 169.55 36.1385 169.847C37.8396 177.291 40.3054 185.094 38.9789 192.586C38.5536 195.221 37.5225 197.721 35.9668 199.89H38.1829C41.4291 199.89 45.9862 197.954 46.8134 194.443C47.0067 192.193 46.7466 189.927 46.0487 187.779Z" fill="#156819"/>
<path d="M237.729 178.071C237.729 176.985 236.849 176.105 235.763 176.105C234.677 176.105 233.796 176.985 233.796 178.071V200.264C233.796 201.35 234.677 202.23 235.763 202.23C236.849 202.23 237.729 201.35 237.729 200.264V178.071Z" fill="#BC532A"/>
<path d="M245.501 181.458C244.596 177.51 240.554 160.155 233.406 165.258C229.739 167.88 228.724 171.954 227.163 175.965C225.832 179.262 225.062 182.76 224.885 186.312C224.776 193.538 232.126 194.427 237.745 194.396C240.991 194.396 245.548 192.461 246.375 188.949C246.57 186.683 246.304 184.4 245.595 182.238L245.501 181.458Z" fill="#2C9135"/>
<path d="M245.845 182.223L245.673 181.458C244.861 177.978 241.615 163.994 235.934 164.291C237.62 171.657 240.117 179.445 238.79 186.998C238.365 189.633 237.334 192.133 235.778 194.302H237.994C241.241 194.302 245.798 192.367 246.625 188.855C246.809 186.615 246.544 184.36 245.845 182.223Z" fill="#156819"/>
<path d="M263.777 196.831C263.777 195.745 262.896 194.864 261.81 194.864C260.724 194.864 259.844 195.745 259.844 196.831V219.023C259.844 220.109 260.724 220.99 261.81 220.99C262.896 220.99 263.777 220.109 263.777 219.023V196.831Z" fill="#BC532A"/>
<path d="M271.533 200.217C270.628 196.269 266.586 178.914 259.438 184.018C255.77 186.64 254.756 190.713 253.195 194.724C251.864 198.022 251.094 201.519 250.917 205.071C250.807 212.297 258.158 213.187 263.777 213.155C267.023 213.155 271.58 211.22 272.407 207.709C272.602 205.442 272.336 203.159 271.627 200.998L271.533 200.217Z" fill="#2C9135"/>
<path d="M271.939 200.982L271.767 200.217C270.956 196.737 267.709 182.753 262.029 183.05C263.714 190.416 266.211 198.204 264.885 205.758C264.459 208.392 263.428 210.893 261.873 213.061H264.089C267.335 213.061 271.892 211.126 272.719 207.615C272.903 205.374 272.638 203.119 271.939 200.982Z" fill="#156819"/>
<path d="M388.395 145.141C388.395 144.055 387.515 143.175 386.429 143.175C385.343 143.175 384.463 144.055 384.463 145.141V167.334C384.463 168.42 385.343 169.301 386.429 169.301C387.515 169.301 388.395 168.42 388.395 167.334V145.141Z" fill="#BC532A"/>
<path d="M396.168 148.512C395.262 144.564 391.22 127.209 384.072 132.313C380.405 134.935 379.39 139.008 377.83 143.019C376.498 146.317 375.728 149.814 375.551 153.366C375.442 160.592 382.793 161.482 388.411 161.45C391.657 161.45 396.214 159.515 397.042 156.004C397.236 153.737 396.971 151.454 396.261 149.293L396.168 148.512Z" fill="#2C9135"/>
<path d="M396.511 149.277L396.339 148.513C395.528 145.032 392.281 131.049 386.601 131.345C388.286 138.712 390.783 146.499 389.457 154.053C389.031 156.688 388 159.188 386.445 161.357H388.661C391.907 161.357 396.464 159.422 397.291 155.91C397.475 153.669 397.21 151.414 396.511 149.277Z" fill="#156819"/>
<path d="M258.954 69.1687C258.954 68.0827 258.074 67.2023 256.988 67.2023C255.902 67.2023 255.021 68.0827 255.021 69.1687V91.3613C255.021 92.4473 255.902 93.3277 256.988 93.3277C258.074 93.3277 258.954 92.4473 258.954 91.3613V69.1687Z" fill="#BC532A"/>
<path d="M266.726 72.5395C265.821 68.5911 261.779 51.2365 254.631 56.3399C250.964 58.9618 249.949 63.0351 248.388 67.046C247.082 70.3533 246.338 73.856 246.188 77.4088C246.079 84.6347 253.429 85.5243 259.048 85.493C262.294 85.493 266.851 83.5578 267.678 80.0463C267.873 77.7797 267.607 75.497 266.898 73.3355L266.726 72.5395Z" fill="#2C9135"/>
<path d="M267.07 73.3043L266.898 72.5396C266.086 69.0593 262.84 55.0758 257.159 55.3723C258.845 62.7386 261.342 70.5264 260.015 78.08C259.59 80.7149 258.559 83.2151 257.003 85.3839H259.219C262.466 85.3839 267.023 83.4486 267.85 79.9371C268.034 77.6963 267.769 75.4413 267.07 73.3043Z" fill="#156819"/>
<path d="M275.263 282.964C275.263 281.878 274.383 280.997 273.297 280.997C272.211 280.997 271.33 281.878 271.33 282.964V305.156C271.33 306.242 272.211 307.123 273.297 307.123C274.383 307.123 275.263 306.242 275.263 305.156V282.964Z" fill="#BC532A"/>
<path d="M283.035 286.335C282.13 282.386 278.088 265.032 270.94 270.135C267.272 272.757 266.258 276.83 264.697 280.841C263.366 284.139 262.596 287.636 262.419 291.188C262.31 298.414 269.66 299.304 275.279 299.273C278.525 299.273 283.082 297.337 283.909 293.826C284.104 291.559 283.838 289.277 283.129 287.115L283.035 286.335Z" fill="#2C9135"/>
<path d="M283.378 287.099L283.207 286.335C282.395 282.854 279.149 268.871 273.468 269.167C275.154 276.534 277.651 284.321 276.324 291.875C275.899 294.51 274.868 297.01 273.312 299.179H275.528C278.775 299.179 283.332 297.244 284.159 293.732C284.343 291.491 284.078 289.236 283.378 287.099Z" fill="#156819"/>
<path d="M416.425 195.598L375.629 220.599L408.169 239.655L449.183 212.812" fill="url(#paint0_linear_206_528)"/>
<path d="M414.349 198.766V63.8312L443.768 80.2649V215.73L414.349 198.766Z" fill="#FFD9B6"/>
<path d="M443.768 80.2649L473.654 63.8312V198.189L443.768 215.73V80.2649Z" fill="#FFCC99"/>
<path d="M414.349 63.8309L443.768 45.774L473.654 63.8309L443.768 80.2647L414.349 63.8309Z" fill="#9D9CA1"/>
<path d="M443.768 80.2649L473.654 27.0931V63.8311L443.768 80.2649Z" fill="#FFCC99"/>
<path d="M473.654 27.0929L444.002 7.91235L414.349 63.8309L443.768 80.2646L473.654 27.0929Z" fill="#FFD9B6"/>
<path d="M466.912 67.0147V71.884L470.159 70.1985V65.1107L466.912 67.0147Z" fill="#3C637A"/>
<path d="M466.912 60.2415V65.1108L470.159 63.4253V58.3531L466.912 60.2415Z" fill="#3C637A"/>
<path d="M466.912 80.5301V85.415L470.159 83.7295V78.6417L466.912 80.5301Z" fill="#3C637A"/>
<path d="M466.912 73.7726V78.6418L470.159 76.9563V71.8842L466.912 73.7726Z" fill="#3C637A"/>
<path d="M466.912 95.2473V100.132L470.159 98.431V93.3589L466.912 95.2473Z" fill="#3C637A"/>
<path d="M466.912 88.4896V93.3589L470.159 91.6733V86.6012L466.912 88.4896Z" fill="#3C637A"/>
<path d="M466.912 108.778V113.647L470.159 111.962V106.89L466.912 108.778Z" fill="#3C637A"/>
<path d="M466.912 102.02V106.89L470.159 105.204V100.132L466.912 102.02Z" fill="#3C637A"/>
<path d="M466.975 123.495V128.364L470.221 126.679V121.607L466.975 123.495Z" fill="#3C637A"/>
<path d="M466.975 116.737V121.607L470.221 119.921V114.833L466.975 116.737Z" fill="#3C637A"/>
<path d="M466.975 137.026V141.895L470.221 140.21V135.138L466.975 137.026Z" fill="#3C637A"/>
<path d="M466.975 130.269V135.138L470.221 133.437V128.365L466.975 130.269Z" fill="#3C637A"/>
<path d="M466.975 151.743V156.612L470.221 154.927V149.839L466.975 151.743Z" fill="#3C637A"/>
<path d="M466.975 144.97V149.839L470.221 148.154V143.082L466.975 144.97Z" fill="#3C637A"/>
<path d="M466.975 165.259V170.143L470.221 168.458V163.37L466.975 165.259Z" fill="#3C637A"/>
<path d="M466.975 158.501V163.37L470.221 161.684V156.612L466.975 158.501Z" fill="#3C637A"/>
<path d="M466.975 179.336V184.205L470.221 182.52V177.448L466.975 179.336Z" fill="#3C637A"/>
<path d="M466.975 172.578V177.447L470.221 175.762V170.69L466.975 172.578Z" fill="#3C637A"/>
<path d="M466.975 192.867V197.736L470.221 196.05V190.978L466.975 192.867Z" fill="#3C637A"/>
<path d="M466.975 186.109V190.978L470.221 189.293V184.205L466.975 186.109Z" fill="#3C637A"/>
<path d="M461.169 69.6211V74.4903L464.415 72.8048V67.7327L461.169 69.6211Z" fill="#3C637A"/>
<path d="M461.169 62.8635V67.7328L464.415 66.0472V60.9595L461.169 62.8635Z" fill="#3C637A"/>
<path d="M461.169 83.1522V88.0215L464.415 86.3359V81.2638L461.169 83.1522Z" fill="#3C637A"/>
<path d="M461.169 76.3789V81.2638L464.415 79.5626V74.4905L461.169 76.3789Z" fill="#3C637A"/>
<path d="M461.169 97.8691V102.738L464.415 101.053V95.9651L461.169 97.8691Z" fill="#3C637A"/>
<path d="M461.169 91.0959V95.9652L464.415 94.2797V89.2075L461.169 91.0959Z" fill="#3C637A"/>
<path d="M461.169 111.4V116.269L464.415 114.568V109.496L461.169 111.4Z" fill="#3C637A"/>
<path d="M461.169 104.627V109.496L464.415 107.81V102.738L461.169 104.627Z" fill="#3C637A"/>
<path d="M461.232 126.101V130.971L464.478 129.285V124.213L461.232 126.101Z" fill="#3C637A"/>
<path d="M461.232 119.344V124.213L464.478 122.528V117.455L461.232 119.344Z" fill="#3C637A"/>
<path d="M461.232 139.632V144.502L464.478 142.816V137.744L461.232 139.632Z" fill="#3C637A"/>
<path d="M461.232 132.875V137.744L464.478 136.059V130.971L461.232 132.875Z" fill="#3C637A"/>
<path d="M461.232 154.349V159.219L464.478 157.533V152.461L461.232 154.349Z" fill="#3C637A"/>
<path d="M461.232 147.592V152.461L464.478 150.775V145.688L461.232 147.592Z" fill="#3C637A"/>
<path d="M461.232 167.88V172.75L464.478 171.064V165.976L461.232 167.88Z" fill="#3C637A"/>
<path d="M461.232 161.107V165.977L464.478 164.291V159.219L461.232 161.107Z" fill="#3C637A"/>
<path d="M461.232 181.958V186.827L464.478 185.141V180.054L461.232 181.958Z" fill="#3C637A"/>
<path d="M461.232 175.184V180.054L464.478 178.368V173.296L461.232 175.184Z" fill="#3C637A"/>
<path d="M461.232 195.473V200.358L464.478 198.657V193.584L461.232 195.473Z" fill="#3C637A"/>
<path d="M461.232 188.715V193.584L464.478 191.899V186.827L461.232 188.715Z" fill="#3C637A"/>
<path d="M454.349 73.8506V78.7198L457.595 77.0343V71.9622L454.349 73.8506Z" fill="#3C637A"/>
<path d="M454.349 67.0929V71.9621L457.595 70.2766V65.1888L454.349 67.0929Z" fill="#3C637A"/>
<path d="M454.349 87.3815V92.2508L457.595 90.5653V85.4775L454.349 87.3815Z" fill="#3C637A"/>
<path d="M454.349 80.624V85.4776L457.595 83.7921V78.72L454.349 80.624Z" fill="#3C637A"/>
<path d="M454.349 102.098V106.968L457.595 105.282V100.194L454.349 102.098Z" fill="#3C637A"/>
<path d="M454.349 95.3252V100.194L457.595 98.5089V93.4368L454.349 95.3252Z" fill="#3C637A"/>
<path d="M454.349 115.629V120.499L457.595 118.797V113.725L454.349 115.629Z" fill="#3C637A"/>
<path d="M454.349 108.856V113.725L457.595 112.04V106.968L454.349 108.856Z" fill="#3C637A"/>
<path d="M454.411 130.331V135.2L457.658 133.515V128.443L454.411 130.331Z" fill="#3C637A"/>
<path d="M454.411 123.573V128.442L457.658 126.757V121.685L454.411 123.573Z" fill="#3C637A"/>
<path d="M454.411 143.862V148.731L457.658 147.045V141.973L454.411 143.862Z" fill="#3C637A"/>
<path d="M454.411 137.104V141.973L457.658 140.288V135.2L454.411 137.104Z" fill="#3C637A"/>
<path d="M454.411 158.579V163.448L457.658 161.763V156.691L454.411 158.579Z" fill="#3C637A"/>
<path d="M454.411 151.821V156.69L457.658 155.005V149.917L454.411 151.821Z" fill="#3C637A"/>
<path d="M454.411 172.11V176.979L457.658 175.294V170.222L454.411 172.11Z" fill="#3C637A"/>
<path d="M454.411 165.337V170.221L457.658 168.52V163.448L454.411 165.337Z" fill="#3C637A"/>
<path d="M454.411 186.187V191.056L457.658 189.371V184.283L454.411 186.187Z" fill="#3C637A"/>
<path d="M454.411 179.414V184.283L457.658 182.597V177.525L454.411 179.414Z" fill="#3C637A"/>
<path d="M454.411 199.702V204.572L457.658 202.886V197.814L454.411 199.702Z" fill="#3C637A"/>
<path d="M454.411 192.945V197.814L457.658 196.128V191.056L454.411 192.945Z" fill="#3C637A"/>
<path d="M448.309 78.3922V83.2615L451.555 81.5759V76.5038L448.309 78.3922Z" fill="#3C637A"/>
<path d="M448.309 91.9231V96.7923L451.555 95.1068V90.0347L448.309 91.9231Z" fill="#3C637A"/>
<path d="M448.309 85.1654V90.0346L451.555 88.3491V83.2614L448.309 85.1654Z" fill="#3C637A"/>
<path d="M448.309 106.64V111.509L451.555 109.824V104.751L448.309 106.64Z" fill="#3C637A"/>
<path d="M448.309 99.8823V104.752L451.555 103.066V97.9783L448.309 99.8823Z" fill="#3C637A"/>
<path d="M448.309 120.171V125.04L451.555 123.355V118.283L448.309 120.171Z" fill="#3C637A"/>
<path d="M448.309 113.398V118.283L451.555 116.581V111.509L448.309 113.398Z" fill="#3C637A"/>
<path d="M448.372 134.888V139.757L451.618 138.072V132.984L448.372 134.888Z" fill="#3C637A"/>
<path d="M448.372 128.115V132.984L451.618 131.298V126.226L448.372 128.115Z" fill="#3C637A"/>
<path d="M448.372 148.419V153.288L451.618 151.587V146.515L448.372 148.419Z" fill="#3C637A"/>
<path d="M448.372 141.646V146.515L451.618 144.829V139.757L448.372 141.646Z" fill="#3C637A"/>
<path d="M448.372 163.12V167.99L451.618 166.304V161.232L448.372 163.12Z" fill="#3C637A"/>
<path d="M448.372 156.363V161.232L451.618 159.547V154.474L448.372 156.363Z" fill="#3C637A"/>
<path d="M448.372 176.651V181.52L451.618 179.835V174.763L448.372 176.651Z" fill="#3C637A"/>
<path d="M448.372 169.894V174.763L451.618 173.077V167.99L448.372 169.894Z" fill="#3C637A"/>
<path d="M448.372 190.728V195.598L451.618 193.912V188.84L448.372 190.728Z" fill="#3C637A"/>
<path d="M448.372 183.971V188.84L451.618 187.139V182.067L448.372 183.971Z" fill="#3C637A"/>
<path d="M448.372 204.259V209.129L451.618 207.443V202.355L448.372 204.259Z" fill="#3C637A"/>
<path d="M448.372 197.486V202.355L451.618 200.67V195.598L448.372 197.486Z" fill="#3C637A"/>
<path d="M420.498 81.7944V86.6637L417.252 84.9781V79.8904L420.498 81.7944Z" fill="#3C637A"/>
<path d="M420.498 75.0211V79.8903L417.252 78.2048V73.1327L420.498 75.0211Z" fill="#3C637A"/>
<path d="M420.498 96.5113V101.381L417.252 99.6951V94.6073L420.498 96.5113Z" fill="#3C637A"/>
<path d="M420.498 89.7381V94.6074L417.252 92.9219V87.8497L420.498 89.7381Z" fill="#3C637A"/>
<path d="M420.498 110.027V114.896L417.252 113.21V108.138L420.498 110.027Z" fill="#3C637A"/>
<path d="M420.498 103.269V108.138L417.252 106.453V101.38L420.498 103.269Z" fill="#3C637A"/>
<path d="M420.436 124.744V129.613L417.19 127.927V122.855L420.436 124.744Z" fill="#3C637A"/>
<path d="M420.436 117.986V122.855L417.19 121.17V116.098L420.436 117.986Z" fill="#3C637A"/>
<path d="M420.436 138.275V143.144L417.19 141.458V136.386L420.436 138.275Z" fill="#3C637A"/>
<path d="M420.436 131.517V136.386L417.19 134.701V129.613L420.436 131.517Z" fill="#3C637A"/>
<path d="M420.436 152.992V157.861L417.19 156.176V151.104L420.436 152.992Z" fill="#3C637A"/>
<path d="M420.436 146.234V151.103L417.19 149.402V144.33L420.436 146.234Z" fill="#3C637A"/>
<path d="M420.436 166.523V171.392L417.19 169.706V164.619L420.436 166.523Z" fill="#3C637A"/>
<path d="M420.436 159.749V164.619L417.19 162.933V157.861L420.436 159.749Z" fill="#3C637A"/>
<path d="M420.436 180.6V185.469L417.19 183.768V178.696L420.436 180.6Z" fill="#3C637A"/>
<path d="M420.436 173.827V178.696L417.19 177.01V171.938L420.436 173.827Z" fill="#3C637A"/>
<path d="M420.436 194.115V198.984L417.19 197.299V192.227L420.436 194.115Z" fill="#3C637A"/>
<path d="M420.436 187.357V192.227L417.19 190.541V185.469L420.436 187.357Z" fill="#3C637A"/>
<path d="M426.429 85.4775V90.3468L423.183 88.6613V83.5891L426.429 85.4775Z" fill="#3C637A"/>
<path d="M426.429 78.7197V83.589L423.183 81.9034V76.8313L426.429 78.7197Z" fill="#3C637A"/>
<path d="M426.429 100.194V105.064L423.183 103.378V98.3059L426.429 100.194Z" fill="#3C637A"/>
<path d="M426.429 93.4367V98.306L423.183 96.6205V91.5483L426.429 93.4367Z" fill="#3C637A"/>
<path d="M426.429 113.726V118.595L423.183 116.909V111.837L426.429 113.726Z" fill="#3C637A"/>
<path d="M426.429 106.968V111.837L423.183 110.136V105.064L426.429 106.968Z" fill="#3C637A"/>
<path d="M426.366 128.442V133.312L423.12 131.626V126.554L426.366 128.442Z" fill="#3C637A"/>
<path d="M426.366 121.685V126.554L423.12 124.853V119.781L426.366 121.685Z" fill="#3C637A"/>
<path d="M426.366 141.973V146.843L423.12 145.157V140.069L426.366 141.973Z" fill="#3C637A"/>
<path d="M426.366 135.2V140.069L423.12 138.384V133.312L426.366 135.2Z" fill="#3C637A"/>
<path d="M426.366 156.675V161.56L423.12 159.874V154.787L426.366 156.675Z" fill="#3C637A"/>
<path d="M426.366 149.917V154.786L423.12 153.101V148.029L426.366 149.917Z" fill="#3C637A"/>
<path d="M426.366 170.206V175.075L423.12 173.389V168.317L426.366 170.206Z" fill="#3C637A"/>
<path d="M426.366 163.448V168.317L423.12 166.632V161.56L426.366 163.448Z" fill="#3C637A"/>
<path d="M426.366 184.283V189.152L423.12 187.467V182.395L426.366 184.283Z" fill="#3C637A"/>
<path d="M426.366 177.525V182.395L423.12 180.709V175.621L426.366 177.525Z" fill="#3C637A"/>
<path d="M426.366 197.814V202.683L423.12 200.998V195.925L426.366 197.814Z" fill="#3C637A"/>
<path d="M426.366 191.041V195.925L423.12 194.224V189.152L426.366 191.041Z" fill="#3C637A"/>
<path d="M432.375 88.989V93.8426L429.113 92.1571V87.085L432.375 88.989Z" fill="#3C637A"/>
<path d="M432.375 82.2155V87.0848L429.113 85.3993V80.3271L432.375 82.2155Z" fill="#3C637A"/>
<path d="M432.375 103.69V108.56L429.113 106.874V101.802L432.375 103.69Z" fill="#3C637A"/>
<path d="M432.375 96.9328V101.802L429.113 100.117V95.0444L432.375 96.9328Z" fill="#3C637A"/>
<path d="M432.375 117.221V122.091L429.113 120.405V115.333L432.375 117.221Z" fill="#3C637A"/>
<path d="M432.375 110.464V115.333L429.113 113.647V108.56L432.375 110.464Z" fill="#3C637A"/>
<path d="M432.312 131.938V136.808L429.066 135.122V130.05L432.312 131.938Z" fill="#3C637A"/>
<path d="M432.312 125.181V130.05L429.066 128.364V123.277L432.312 125.181Z" fill="#3C637A"/>
<path d="M432.312 145.469V150.339L429.066 148.653V143.565L432.312 145.469Z" fill="#3C637A"/>
<path d="M432.312 138.696V143.565L429.066 141.88V136.808L432.312 138.696Z" fill="#3C637A"/>
<path d="M432.312 160.186V165.056L429.066 163.37V158.282L432.312 160.186Z" fill="#3C637A"/>
<path d="M432.312 153.413V158.282L429.066 156.597V151.525L432.312 153.413Z" fill="#3C637A"/>
<path d="M432.312 173.702V178.571L429.066 176.885V171.813L432.312 173.702Z" fill="#3C637A"/>
<path d="M432.312 166.944V171.813L429.066 170.128V165.056L432.312 166.944Z" fill="#3C637A"/>
<path d="M432.312 187.779V192.648L429.066 190.963V185.891L432.312 187.779Z" fill="#3C637A"/>
<path d="M432.312 181.021V185.891L429.066 184.205V179.133L432.312 181.021Z" fill="#3C637A"/>
<path d="M432.312 201.31V206.179L429.066 204.494V199.421L432.312 201.31Z" fill="#3C637A"/>
<path d="M432.312 194.552V199.421L429.066 197.72V192.648L432.312 194.552Z" fill="#3C637A"/>
<path d="M438.602 92.7035V97.5727L435.34 95.8872V90.8151L438.602 92.7035Z" fill="#3C637A"/>
<path d="M438.602 85.9456V90.8149L435.34 89.1138V84.0416L438.602 85.9456Z" fill="#3C637A"/>
<path d="M438.602 107.42V112.29L435.34 110.604V105.516L438.602 107.42Z" fill="#3C637A"/>
<path d="M438.602 100.647V105.516L435.34 103.831V98.7587L438.602 100.647Z" fill="#3C637A"/>
<path d="M438.602 120.951V125.821L435.34 124.135V119.047L438.602 120.951Z" fill="#3C637A"/>
<path d="M438.602 114.178V119.047L435.34 117.362V112.29L438.602 114.178Z" fill="#3C637A"/>
<path d="M438.54 135.653V140.522L435.293 138.836V133.764L438.54 135.653Z" fill="#3C637A"/>
<path d="M438.54 128.895V133.764L435.293 132.079V127.007L438.54 128.895Z" fill="#3C637A"/>
<path d="M438.54 149.184V154.053L435.293 152.367V147.295L438.54 149.184Z" fill="#3C637A"/>
<path d="M438.54 142.426V147.295L435.293 145.61V140.522L438.54 142.426Z" fill="#3C637A"/>
<path d="M438.54 163.901V168.77L435.293 167.085V162.012L438.54 163.901Z" fill="#3C637A"/>
<path d="M438.54 157.143V162.012L435.293 160.327V155.239L438.54 157.143Z" fill="#3C637A"/>
<path d="M438.54 177.432V182.301L435.293 180.615V175.543L438.54 177.432Z" fill="#3C637A"/>
<path d="M438.54 170.658V175.543L435.293 173.842V168.77L438.54 170.658Z" fill="#3C637A"/>
<path d="M438.54 191.509V196.378L435.293 194.692V189.605L438.54 191.509Z" fill="#3C637A"/>
<path d="M438.54 184.736V189.605L435.293 187.919V182.847L438.54 184.736Z" fill="#3C637A"/>
<path d="M438.54 205.024V209.909L435.293 208.208V203.136L438.54 205.024Z" fill="#3C637A"/>
<path d="M438.54 198.266V203.136L435.293 201.45V196.378L438.54 198.266Z" fill="#3C637A"/>
<path d="M466.491 31.1976L444.002 16.6522L421.513 59.071L443.83 71.5251L466.491 31.1976Z" stroke="#DDB287" stroke-width="0.854195" stroke-miterlimit="10"/>
<path d="M312.173 187.092L271.377 212.094L302.231 228.933L344.947 204.306" fill="url(#paint1_linear_206_528)"/>
<path d="M299.391 196.628V61.693L328.809 78.1268V213.592L299.391 196.628Z" fill="#FFD9B6"/>
<path d="M328.809 78.1268L358.696 61.693V196.05L328.809 213.592V78.1268Z" fill="#FFCC99"/>
<path d="M299.391 61.693L328.809 43.6361L358.696 61.693L328.809 78.1267L299.391 61.693Z" fill="#9D9CA1"/>
<path d="M328.809 78.1267L358.696 24.9393V61.6929L328.809 78.1267Z" fill="#FFCC99"/>
<path d="M358.696 24.9393L329.043 5.77441L299.391 61.6929L328.809 78.1267L358.696 24.9393Z" fill="#FFD9B6"/>
<path d="M351.954 64.8612V69.7304L355.2 68.0449V62.9728L351.954 64.8612Z" fill="#3C637A"/>
<path d="M351.954 58.1034V62.9726L355.2 61.2871V56.215L351.954 58.1034Z" fill="#3C637A"/>
<path d="M351.954 78.3922V83.2615L355.2 81.5759V76.5038L351.954 78.3922Z" fill="#3C637A"/>
<path d="M351.954 71.6346V76.5039L355.2 74.8183V69.7306L351.954 71.6346Z" fill="#3C637A"/>
<path d="M351.954 93.109V97.9782L355.2 96.2927V91.2206L351.954 93.109Z" fill="#3C637A"/>
<path d="M351.954 86.3358V91.2207L355.2 89.5351V84.4474L351.954 86.3358Z" fill="#3C637A"/>
<path d="M351.954 106.64V111.509L355.2 109.824V104.736L351.954 106.64Z" fill="#3C637A"/>
<path d="M351.954 99.8667V104.736L355.2 103.05V97.9783L351.954 99.8667Z" fill="#3C637A"/>
<path d="M352.016 121.357V126.226L355.263 124.525V119.453L352.016 121.357Z" fill="#3C637A"/>
<path d="M352.016 114.584V119.453L355.263 117.767V112.695L352.016 114.584Z" fill="#3C637A"/>
<path d="M352.016 134.872V139.742L355.263 138.056V132.984L352.016 134.872Z" fill="#3C637A"/>
<path d="M352.016 128.115V132.984L355.263 131.298V126.226L352.016 128.115Z" fill="#3C637A"/>
<path d="M352.016 149.59V154.459L355.263 152.773V147.701L352.016 149.59Z" fill="#3C637A"/>
<path d="M352.016 142.832V147.701L355.263 146.016V140.943L352.016 142.832Z" fill="#3C637A"/>
<path d="M352.016 163.121V167.99L355.263 166.304V161.232L352.016 163.121Z" fill="#3C637A"/>
<path d="M352.016 156.363V161.232L355.263 159.547V154.459L352.016 156.363Z" fill="#3C637A"/>
<path d="M352.016 177.197V182.067L355.263 180.381V175.293L352.016 177.197Z" fill="#3C637A"/>
<path d="M352.016 170.424V175.294L355.263 173.608V168.536L352.016 170.424Z" fill="#3C637A"/>
<path d="M352.016 190.728V195.598L355.263 193.912V188.824L352.016 190.728Z" fill="#3C637A"/>
<path d="M352.016 183.955V188.825L355.263 187.139V182.067L352.016 183.955Z" fill="#3C637A"/>
<path d="M346.211 67.4831V72.3524L349.457 70.6513V65.5791L346.211 67.4831Z" fill="#3C637A"/>
<path d="M346.211 60.7097V65.579L349.457 63.8934V58.8213L346.211 60.7097Z" fill="#3C637A"/>
<path d="M346.211 80.9983V85.8675L349.457 84.182V79.1099L346.211 80.9983Z" fill="#3C637A"/>
<path d="M346.211 74.2407V79.11L349.457 77.4244V72.3523L346.211 74.2407Z" fill="#3C637A"/>
<path d="M346.211 95.7156V100.585L349.457 98.8993V93.8271L346.211 95.7156Z" fill="#3C637A"/>
<path d="M346.211 88.9577V93.827L349.457 92.1415V87.0693L346.211 88.9577Z" fill="#3C637A"/>
<path d="M346.211 109.246V114.116L349.457 112.43V107.358L346.211 109.246Z" fill="#3C637A"/>
<path d="M346.211 102.489V107.358L349.457 105.672V100.585L346.211 102.489Z" fill="#3C637A"/>
<path d="M346.273 123.963V128.832L349.519 127.147V122.075L346.273 123.963Z" fill="#3C637A"/>
<path d="M346.273 117.206V122.075L349.519 120.374V115.302L346.273 117.206Z" fill="#3C637A"/>
<path d="M346.273 137.494V142.363L349.519 140.678V135.59L346.273 137.494Z" fill="#3C637A"/>
<path d="M346.273 130.721V135.59L349.519 133.905V128.833L346.273 130.721Z" fill="#3C637A"/>
<path d="M346.273 152.211V157.081L349.519 155.395V150.307L346.273 152.211Z" fill="#3C637A"/>
<path d="M346.273 145.438V150.307L349.519 148.622V143.55L346.273 145.438Z" fill="#3C637A"/>
<path d="M346.273 165.727V170.596L349.519 168.91V163.838L346.273 165.727Z" fill="#3C637A"/>
<path d="M346.273 158.969V163.838L349.519 162.153V157.081L346.273 158.969Z" fill="#3C637A"/>
<path d="M346.273 179.804V184.673L349.519 182.988V177.915L346.273 179.804Z" fill="#3C637A"/>
<path d="M346.273 173.046V177.915L349.519 176.23V171.142L346.273 173.046Z" fill="#3C637A"/>
<path d="M346.273 193.335V198.204L349.519 196.518V191.446L346.273 193.335Z" fill="#3C637A"/>
<path d="M346.273 186.561V191.446L349.519 189.745V184.673L346.273 186.561Z" fill="#3C637A"/>
<path d="M339.391 71.7124V76.5816L342.637 74.8961V69.8083L339.391 71.7124Z" fill="#3C637A"/>
<path d="M339.391 64.9392V69.8084L342.637 68.1229V63.0508L339.391 64.9392Z" fill="#3C637A"/>
<path d="M339.391 85.2278V90.097L342.637 88.4115V83.3394L339.391 85.2278Z" fill="#3C637A"/>
<path d="M339.391 78.4699V83.3392L342.637 81.6537V76.5815L339.391 78.4699Z" fill="#3C637A"/>
<path d="M339.391 99.9448V104.814L342.637 103.129V98.0564L339.391 99.9448Z" fill="#3C637A"/>
<path d="M339.391 93.187V98.0562L342.637 96.3707V91.283L339.391 93.187Z" fill="#3C637A"/>
<path d="M339.391 113.476V118.345L342.637 116.66V111.587L339.391 113.476Z" fill="#3C637A"/>
<path d="M339.391 106.718V111.587L342.637 109.902V104.814L339.391 106.718Z" fill="#3C637A"/>
<path d="M339.453 128.193V133.062L342.699 131.377V126.304L339.453 128.193Z" fill="#3C637A"/>
<path d="M339.453 121.435V126.304L342.699 124.603V119.531L339.453 121.435Z" fill="#3C637A"/>
<path d="M339.453 141.724V146.593L342.699 144.907V139.82L339.453 141.724Z" fill="#3C637A"/>
<path d="M339.453 134.95V139.82L342.699 138.134V133.062L339.453 134.95Z" fill="#3C637A"/>
<path d="M339.453 156.441V161.31L342.699 159.624V154.537L339.453 156.441Z" fill="#3C637A"/>
<path d="M339.453 149.667V154.537L342.699 152.851V147.779L339.453 149.667Z" fill="#3C637A"/>
<path d="M339.453 169.956V174.825L342.699 173.14V168.068L339.453 169.956Z" fill="#3C637A"/>
<path d="M339.453 163.198V168.068L342.699 166.382V161.31L339.453 163.198Z" fill="#3C637A"/>
<path d="M339.453 184.033V188.902L342.699 187.217V182.145L339.453 184.033Z" fill="#3C637A"/>
<path d="M339.453 177.275V182.145L342.699 180.459V175.371L339.453 177.275Z" fill="#3C637A"/>
<path d="M339.453 197.564V202.434L342.699 200.748V195.676L339.453 197.564Z" fill="#3C637A"/>
<path d="M339.453 190.806V195.676L342.699 193.975V188.902L339.453 190.806Z" fill="#3C637A"/>
<path d="M333.351 76.254V81.1233L336.597 79.4378V74.3656L333.351 76.254Z" fill="#3C637A"/>
<path d="M333.351 89.7849V94.6541L336.597 92.9686V87.8809L333.351 89.7849Z" fill="#3C637A"/>
<path d="M333.351 83.0116V87.8808L336.597 86.1953V81.1232L333.351 83.0116Z" fill="#3C637A"/>
<path d="M333.351 104.486V109.371L336.597 107.686V102.598L333.351 104.486Z" fill="#3C637A"/>
<path d="M333.351 97.7287V102.598L336.597 100.912V95.8403L333.351 97.7287Z" fill="#3C637A"/>
<path d="M333.351 118.017V122.887L336.597 121.201V116.129L333.351 118.017Z" fill="#3C637A"/>
<path d="M333.351 111.26V116.129L336.597 114.443V109.371L333.351 111.26Z" fill="#3C637A"/>
<path d="M333.413 132.734V137.604L336.659 135.918V130.846L333.413 132.734Z" fill="#3C637A"/>
<path d="M333.413 125.977V130.846L336.659 129.16V124.088L333.413 125.977Z" fill="#3C637A"/>
<path d="M333.413 146.265V151.135L336.659 149.449V144.377L333.413 146.265Z" fill="#3C637A"/>
<path d="M333.413 139.508V144.377L336.659 142.676V137.604L333.413 139.508Z" fill="#3C637A"/>
<path d="M333.413 160.982V165.851L336.659 164.166V159.094L333.413 160.982Z" fill="#3C637A"/>
<path d="M333.413 154.225V159.094L336.659 157.393V152.321L333.413 154.225Z" fill="#3C637A"/>
<path d="M333.413 174.513V179.382L336.659 177.697V172.609L333.413 174.513Z" fill="#3C637A"/>
<path d="M333.413 167.74V172.609L336.659 170.924V165.852L333.413 167.74Z" fill="#3C637A"/>
<path d="M333.413 188.575V193.444L336.659 191.758V186.686L333.413 188.575Z" fill="#3C637A"/>
<path d="M333.413 181.817V186.686L336.659 185.001V179.929L333.413 181.817Z" fill="#3C637A"/>
<path d="M333.413 202.106V206.975L336.659 205.29V200.217L333.413 202.106Z" fill="#3C637A"/>
<path d="M333.413 195.348V200.217L336.659 198.532V193.444L333.413 195.348Z" fill="#3C637A"/>
<path d="M305.54 79.6405V84.5097L302.278 82.8242V77.7521L305.54 79.6405Z" fill="#3C637A"/>
<path d="M305.54 72.8829V77.7522L302.278 76.0667V70.9945L305.54 72.8829Z" fill="#3C637A"/>
<path d="M305.54 94.3576V99.2269L302.278 97.5414V92.4692L305.54 94.3576Z" fill="#3C637A"/>
<path d="M305.54 87.5999V92.4692L302.278 90.7837V85.6959L305.54 87.5999Z" fill="#3C637A"/>
<path d="M305.54 107.889V112.758L302.278 111.072V105.985L305.54 107.889Z" fill="#3C637A"/>
<path d="M305.54 101.115V105.984L302.278 104.299V99.2268L305.54 101.115Z" fill="#3C637A"/>
<path d="M305.477 122.605V127.475L302.231 125.789V120.701L305.477 122.605Z" fill="#3C637A"/>
<path d="M305.477 115.832V120.702L302.231 119.016V113.944L305.477 115.832Z" fill="#3C637A"/>
<path d="M305.477 136.136V141.006L302.231 139.305V134.232L305.477 136.136Z" fill="#3C637A"/>
<path d="M305.477 129.363V134.233L302.231 132.547V127.475L305.477 129.363Z" fill="#3C637A"/>
<path d="M305.477 150.838V155.723L302.231 154.022V148.949L305.477 150.838Z" fill="#3C637A"/>
<path d="M305.477 144.08V148.95L302.231 147.264V142.192L305.477 144.08Z" fill="#3C637A"/>
<path d="M305.477 164.369V169.238L302.231 167.553V162.48L305.477 164.369Z" fill="#3C637A"/>
<path d="M305.477 157.611V162.481L302.231 160.795V155.723L305.477 157.611Z" fill="#3C637A"/>
<path d="M305.477 178.446V183.315L302.231 181.63V176.558L305.477 178.446Z" fill="#3C637A"/>
<path d="M305.477 171.688V176.558L302.231 174.857V169.784L305.477 171.688Z" fill="#3C637A"/>
<path d="M305.477 191.977V196.846L302.231 195.161V190.073L305.477 191.977Z" fill="#3C637A"/>
<path d="M305.477 185.204V190.073L302.231 188.387V183.315L305.477 185.204Z" fill="#3C637A"/>
<path d="M311.47 83.3393V88.2086L308.224 86.5231V81.4353L311.47 83.3393Z" fill="#3C637A"/>
<path d="M311.47 76.566V81.4353L308.224 79.7498V74.6776L311.47 76.566Z" fill="#3C637A"/>
<path d="M311.47 98.0564V102.926L308.224 101.24V96.1523L311.47 98.0564Z" fill="#3C637A"/>
<path d="M311.47 91.2832V96.1524L308.224 94.4669V89.3948L311.47 91.2832Z" fill="#3C637A"/>
<path d="M311.47 111.587V116.441L308.224 114.755V109.683L311.47 111.587Z" fill="#3C637A"/>
<path d="M311.47 104.814V109.683L308.224 107.998V102.926L311.47 104.814Z" fill="#3C637A"/>
<path d="M311.408 126.289V131.158L308.162 129.473V124.4L311.408 126.289Z" fill="#3C637A"/>
<path d="M311.408 119.531V124.4L308.162 122.715V117.643L311.408 119.531Z" fill="#3C637A"/>
<path d="M311.408 139.82V144.689L308.162 143.004V137.931L311.408 139.82Z" fill="#3C637A"/>
<path d="M311.408 133.062V137.931L308.162 136.246V131.158L311.408 133.062Z" fill="#3C637A"/>
<path d="M311.408 154.537V159.406L308.162 157.721V152.648L311.408 154.537Z" fill="#3C637A"/>
<path d="M311.408 147.779V152.648L308.162 150.963V145.875L311.408 147.779Z" fill="#3C637A"/>
<path d="M311.408 168.067V172.937L308.162 171.251V166.179L311.408 168.067Z" fill="#3C637A"/>
<path d="M311.408 161.294V166.179L308.162 164.478V159.406L311.408 161.294Z" fill="#3C637A"/>
<path d="M311.408 182.145V187.014L308.162 185.329V180.241L311.408 182.145Z" fill="#3C637A"/>
<path d="M311.408 175.372V180.241L308.162 178.555V173.483L311.408 175.372Z" fill="#3C637A"/>
<path d="M311.408 195.66V200.53L308.162 198.844V193.772L311.408 195.66Z" fill="#3C637A"/>
<path d="M311.408 188.902V193.772L308.162 192.086V187.014L311.408 188.902Z" fill="#3C637A"/>
<path d="M317.401 86.8353V91.7046L314.17 90.019V84.9469L317.401 86.8353Z" fill="#3C637A"/>
<path d="M317.401 80.0776V84.9469L314.17 83.2613V78.1736L317.401 80.0776Z" fill="#3C637A"/>
<path d="M317.401 101.552V106.421L314.17 104.736V99.6482L317.401 101.552Z" fill="#3C637A"/>
<path d="M317.401 94.779V99.6483L314.17 97.9628V92.8906L317.401 94.779Z" fill="#3C637A"/>
<path d="M317.401 115.083V119.952L314.17 118.267V113.179L317.401 115.083Z" fill="#3C637A"/>
<path d="M317.401 108.31V113.179L314.17 111.494V106.421L317.401 108.31Z" fill="#3C637A"/>
<path d="M317.338 129.785V134.669L314.092 132.968V127.896L317.338 129.785Z" fill="#3C637A"/>
<path d="M317.338 123.027V127.896L314.092 126.211V121.139L317.338 123.027Z" fill="#3C637A"/>
<path d="M317.338 143.316V148.185L314.092 146.499V141.427L317.338 143.316Z" fill="#3C637A"/>
<path d="M317.338 136.558V141.427L314.092 139.742V134.67L317.338 136.558Z" fill="#3C637A"/>
<path d="M317.338 158.033V162.902L314.092 161.217V156.144L317.338 158.033Z" fill="#3C637A"/>
<path d="M317.338 151.275V156.144L314.092 154.459V149.371L317.338 151.275Z" fill="#3C637A"/>
<path d="M317.338 171.563V176.433L314.092 174.747V169.675L317.338 171.563Z" fill="#3C637A"/>
<path d="M317.338 164.806V169.675L314.092 167.974V162.902L317.338 164.806Z" fill="#3C637A"/>
<path d="M317.338 185.641V190.51L314.092 188.824V183.737L317.338 185.641Z" fill="#3C637A"/>
<path d="M317.338 178.868V183.737L314.092 182.051V176.979L317.338 178.868Z" fill="#3C637A"/>
<path d="M317.338 199.156V204.025L314.092 202.34V197.268L317.338 199.156Z" fill="#3C637A"/>
<path d="M317.338 192.398V197.268L314.092 195.582V190.51L317.338 192.398Z" fill="#3C637A"/>
<path d="M323.644 90.5497V95.4189L320.382 93.7334V88.6613L323.644 90.5497Z" fill="#3C637A"/>
<path d="M323.644 83.7918V88.6611L320.382 86.9756V81.9034L323.644 83.7918Z" fill="#3C637A"/>
<path d="M323.644 105.267V110.136L320.382 108.45V103.378L323.644 105.267Z" fill="#3C637A"/>
<path d="M323.644 98.5089V103.378L320.382 101.693V96.6205L323.644 98.5089Z" fill="#3C637A"/>
<path d="M323.644 118.798V123.667L320.382 121.981V116.909L323.644 118.798Z" fill="#3C637A"/>
<path d="M323.644 112.04V116.909L320.382 115.224V110.136L323.644 112.04Z" fill="#3C637A"/>
<path d="M323.581 133.514V138.384L320.319 136.698V131.626L323.581 133.514Z" fill="#3C637A"/>
<path d="M323.581 126.757V131.626L320.319 129.941V124.853L323.581 126.757Z" fill="#3C637A"/>
<path d="M323.581 147.045V151.915L320.319 150.229V145.141L323.581 147.045Z" fill="#3C637A"/>
<path d="M323.581 140.272V145.142L320.319 143.456V138.384L323.581 140.272Z" fill="#3C637A"/>
<path d="M323.581 161.763V166.632L320.319 164.946V159.859L323.581 161.763Z" fill="#3C637A"/>
<path d="M323.581 154.989V159.859L320.319 158.173V153.101L323.581 154.989Z" fill="#3C637A"/>
<path d="M323.581 175.278V180.147L320.319 178.462V173.389L323.581 175.278Z" fill="#3C637A"/>
<path d="M323.581 168.52V173.39L320.319 171.704V166.632L323.581 168.52Z" fill="#3C637A"/>
<path d="M323.581 189.355V194.224L320.319 192.539V187.467L323.581 189.355Z" fill="#3C637A"/>
<path d="M323.581 182.597V187.467L320.319 185.781V180.693L323.581 182.597Z" fill="#3C637A"/>
<path d="M323.581 202.886V207.755L320.319 206.07V200.998L323.581 202.886Z" fill="#3C637A"/>
<path d="M323.581 196.113V200.997L320.319 199.296V194.224L323.581 196.113Z" fill="#3C637A"/>
<path d="M351.533 29.0596L329.043 14.5143L306.554 56.9175L328.872 69.3871L351.533 29.0596Z" stroke="#DDB287" stroke-width="0.854195" stroke-miterlimit="10"/>
<path d="M164.69 252.421L123.894 277.423L169.778 304.953L207.749 282.168" fill="url(#paint2_linear_206_528)"/>
<path d="M138.393 226.655V205.305L234.873 201.341V222.691" fill="#AFAFAF"/>
<path d="M138.393 270.603C139.47 270.962 182.934 296.385 182.934 296.385L234.873 266.639L189.926 241.06L138.393 270.603Z" fill="#AFAFAF"/>
<path d="M138.393 205.383C139.47 205.742 182.934 231.165 182.934 231.165L234.873 201.419L189.926 175.731L138.393 205.383Z" fill="#BFBFBF"/>
<path d="M182.934 296.385V231.103L138.393 205.305V270.588L182.934 296.385Z" fill="#AAAAAA"/>
<path d="M234.873 266.624V201.341L182.934 231.103V296.385L234.873 266.624Z" fill="#8E8E8E"/>
<path d="M223.948 229.23V238.875L230.363 235.535V225.484L223.948 229.23Z" fill="#68E1FD"/>
<path d="M223.948 215.09V224.735L230.363 221.38V211.345L223.948 215.09Z" fill="#68E1FD"/>
<path d="M223.948 258.227V267.872L230.363 264.532V254.482L223.948 258.227Z" fill="#68E1FD"/>
<path d="M223.948 243.822V253.467L230.363 250.127V240.077L223.948 243.822Z" fill="#68E1FD"/>
<path d="M209.575 236.862V246.506L216.005 243.167V233.116L209.575 236.862Z" fill="#68E1FD"/>
<path d="M209.575 222.722V232.367L216.005 229.027V218.977L209.575 222.722Z" fill="#68E1FD"/>
<path d="M209.575 265.858V275.503L216.005 272.164V262.113L209.575 265.858Z" fill="#68E1FD"/>
<path d="M209.575 251.469V261.099L216.005 257.759V247.708L209.575 251.469Z" fill="#68E1FD"/>
<path d="M194.015 245.758V255.402L200.445 252.063V242.012L194.015 245.758Z" fill="#68E1FD"/>
<path d="M194.015 231.618V241.263L200.445 237.923V227.872L194.015 231.618Z" fill="#68E1FD"/>
<path d="M194.015 274.77V284.399L200.445 281.06V271.009L194.015 274.77Z" fill="#68E1FD"/>
<path d="M194.015 260.35V269.995L200.445 266.655V256.604L194.015 260.35Z" fill="#68E1FD"/>
<path d="M150.129 232.554V242.183L143.699 238.844V228.809L150.129 232.554Z" fill="#68E1FD"/>
<path d="M150.129 218.399V228.044L143.699 224.704V214.653L150.129 218.399Z" fill="#68E1FD"/>
<path d="M150.129 261.551V271.18L143.699 267.841V257.806L150.129 261.551Z" fill="#68E1FD"/>
<path d="M150.129 247.146V256.776L143.699 253.436V243.401L150.129 247.146Z" fill="#68E1FD"/>
<path d="M162.833 239.718V249.347L156.403 246.007V235.972L162.833 239.718Z" fill="#68E1FD"/>
<path d="M162.833 225.578V235.207L156.403 231.868V221.817L162.833 225.578Z" fill="#68E1FD"/>
<path d="M162.833 268.715V278.359L156.403 275.02V264.969L162.833 268.715Z" fill="#68E1FD"/>
<path d="M162.833 254.31V263.955L156.403 260.615V250.564L162.833 254.31Z" fill="#68E1FD"/>
<path d="M176.208 248.083V257.728L169.778 254.388V244.337L176.208 248.083Z" fill="#68E1FD"/>
<path d="M176.208 233.943V243.573L169.778 240.233V230.198L176.208 233.943Z" fill="#68E1FD"/>
<path d="M176.208 277.08V286.725L169.778 283.385V273.334L176.208 277.08Z" fill="#68E1FD"/>
<path d="M176.208 262.675V272.32L169.778 268.98V258.929L176.208 262.675Z" fill="#68E1FD"/>
<path d="M89.7784 190.416L48.9827 215.434L80.2584 232.492L107.757 216.557" fill="url(#paint3_linear_206_528)"/>
<path d="M79.6185 204.041V90.2999L104.433 104.159V218.337L79.6185 204.041Z" fill="#68E1FD"/>
<path opacity="0.33" d="M79.6185 204.041V90.2999L104.433 104.159V218.337L79.6185 204.041Z" fill="#1E4549"/>
<path d="M104.433 104.159L129.622 90.2999V203.557L104.433 218.337V104.159Z" fill="#68E1FD"/>
<path d="M79.6185 90.3L104.433 75.0991L129.622 90.3L104.433 104.159L79.6185 90.3Z" fill="#9D9CA1"/>
<path d="M85.5646 84.7128V88.9734L105.369 100.429L125.159 88.9734V84.7128" fill="#CC9825"/>
<path d="M85.5646 84.7595L105.213 72.7112L125.159 84.7595L105.213 95.7309L85.5646 84.7595Z" fill="#F9E1AA"/>
<path d="M129.622 98.3215L104.215 111.462L79.6341 98.5556V100.538L104.199 113.444L129.622 100.304V98.3215Z" fill="#CCCCCC"/>
<path d="M129.622 106.562L104.215 119.703L79.6341 106.796V108.778L104.199 121.685L129.622 108.544V106.562Z" fill="#CCCCCC"/>
<path d="M129.622 115.552L104.105 128.739L79.6341 115.879V117.877L104.105 130.721L129.622 117.534V115.552Z" fill="#CCCCCC"/>
<path d="M129.622 123.698L103.902 136.979L79.6341 124.229V126.226L103.902 138.961L129.622 125.68V123.698Z" fill="#CCCCCC"/>
<path d="M129.622 131.626L104.308 144.704L79.6341 131.735V133.733L104.308 146.686L129.622 133.608V131.626Z" fill="#CCCCCC"/>
<path d="M129.622 139.757L104.105 152.945L79.6341 140.085V142.083L104.105 154.943L129.622 141.739V139.757Z" fill="#CCCCCC"/>
<path d="M129.622 147.81L104.417 160.842L79.6341 147.826V149.823L104.402 162.824L129.622 149.792V147.81Z" fill="#CCCCCC"/>
<path d="M129.622 156.222L104.215 169.347L79.6341 156.441V158.438L104.199 171.345L129.622 158.204V156.222Z" fill="#CCCCCC"/>
<path d="M129.622 164.619L104.012 177.853L79.6341 165.056V167.038L103.996 179.835L129.622 166.601V164.619Z" fill="#CCCCCC"/>
<path d="M129.622 172.75L103.809 186.093L79.6341 173.405V175.387L103.809 188.091L129.622 174.732V172.75Z" fill="#CCCCCC"/>
<path d="M129.622 181.77L104.417 194.802L79.6341 181.786V183.768L104.402 196.784L129.622 183.752V181.77Z" fill="#CCCCCC"/>
<path d="M129.622 189.901L104.215 203.042L79.6341 190.135V192.118L104.199 205.024L129.622 191.883V189.901Z" fill="#CCCCCC"/>
<path d="M129.622 197.829L104.105 211.001L79.6341 198.157V200.139L104.105 212.999L129.622 199.811V197.829Z" fill="#CCCCCC"/>
<path d="M63.9651 202.387C63.9651 201.301 63.0847 200.42 61.9986 200.42C60.9126 200.42 60.0322 201.301 60.0322 202.387V224.579C60.0322 225.665 60.9126 226.546 61.9986 226.546C63.0847 226.546 63.9651 225.665 63.9651 224.579V202.387Z" fill="#BC532A"/>
<path d="M71.7372 205.773C70.832 201.825 66.7899 184.47 59.642 189.574C55.9745 192.196 54.9601 196.269 53.3994 200.28C52.0678 203.578 51.2977 207.075 51.1208 210.627C51.0116 217.853 58.3623 218.742 63.9807 218.711C67.2269 218.711 71.784 216.776 72.6111 213.265C72.8057 210.998 72.5403 208.715 71.8308 206.554L71.7372 205.773Z" fill="#2C9135"/>
<path d="M72.0805 206.538L71.9089 205.773C71.0973 202.293 67.8511 188.309 62.1703 188.606C63.8558 195.972 66.3529 203.76 65.0263 211.314C64.601 213.949 63.57 216.449 62.0143 218.617H64.2304C67.4766 218.617 72.0337 216.682 72.8609 213.171C73.0449 210.93 72.7796 208.675 72.0805 206.538Z" fill="#156819"/>
<path d="M171.026 143.285L130.231 168.286L161.506 185.36L189.005 169.41" fill="url(#paint4_linear_206_528)"/>
<path d="M151.128 155.832V20.8816L180.547 37.331V172.796L151.128 155.832Z" fill="#68E1FD"/>
<path opacity="0.33" d="M151.128 155.832V20.8816L180.547 37.331V172.796L151.128 155.832Z" fill="#1E4549"/>
<path d="M180.547 37.331L210.433 20.8816V155.255L180.547 172.796V37.331Z" fill="#68E1FD"/>
<path d="M151.128 20.8816L180.547 2.84033L210.433 20.8816L180.547 37.331L151.128 20.8816Z" fill="#9D9CA1"/>
<path d="M158.182 14.2489V19.3211L181.67 32.8832L205.143 19.3211V14.2489" fill="#CC9825"/>
<path d="M158.182 14.2957L181.483 0L205.143 14.2957L181.483 27.3116L158.182 14.2957Z" fill="#F9E1AA"/>
<path d="M210.433 30.4016L180.297 45.977L151.128 30.6669V33.0235L180.281 48.3336L210.433 32.7582V30.4016Z" fill="#CCCCCC"/>
<path d="M210.433 40.187L180.297 55.7624L151.128 40.4523V42.8089L180.281 58.119L210.433 42.528V40.187Z" fill="#CCCCCC"/>
<path d="M210.433 50.8306L180.172 66.484L151.128 51.2363V53.5929L180.172 68.8406L210.433 53.1872V50.8306Z" fill="#CCCCCC"/>
<path d="M210.433 60.4913L179.938 76.2696L151.128 61.1312V63.5034L179.922 78.6262L210.433 62.8479V60.4913Z" fill="#CCCCCC"/>
<path d="M210.433 69.9021L180.406 85.4307L151.128 70.0426V72.4148L180.406 87.7873L210.433 72.2587V69.9021Z" fill="#CCCCCC"/>
<path d="M210.433 79.5626L180.172 95.2005L151.128 79.9528V82.3094L180.172 97.5571L210.433 81.9192V79.5626Z" fill="#CCCCCC"/>
<path d="M210.433 89.1138L180.531 104.564L151.128 89.1294V91.486L180.531 106.921L210.433 91.4548V89.1138Z" fill="#CCCCCC"/>
<path d="M210.433 99.0863L180.297 114.677L151.128 99.3516V101.708L180.281 117.018L210.433 101.443V99.0863Z" fill="#CCCCCC"/>
<path d="M210.433 109.043L180.063 124.759L151.128 109.558V111.931L180.047 127.116L210.433 111.4V109.043Z" fill="#CCCCCC"/>
<path d="M210.433 118.704L179.813 134.529L151.128 119.469V121.825L179.813 136.901L210.433 121.061V118.704Z" fill="#CCCCCC"/>
<path d="M210.433 129.394L180.531 144.861L151.128 129.41V131.782L180.531 147.217L210.433 131.751V129.394Z" fill="#CCCCCC"/>
<path d="M210.433 139.055L180.297 154.63L151.128 139.32V141.677L180.281 156.987L210.433 141.412V139.055Z" fill="#CCCCCC"/>
<path d="M210.433 148.45L180.172 164.088L151.128 148.84V151.197L180.172 166.444L210.433 150.791V148.45Z" fill="#CCCCCC"/>
<defs>
<linearGradient id="paint0_linear_206_528" x1="397.213" y1="229.604" x2="416.643" y2="213.108" gradientUnits="userSpaceOnUse">
<stop stop-color="#88A80D" stop-opacity="0"/>
<stop offset="0.5" stop-color="#88A80D" stop-opacity="0"/>
<stop offset="1" stop-color="#88A80D"/>
</linearGradient>
<linearGradient id="paint1_linear_206_528" x1="273.484" y1="238.297" x2="312.329" y2="204.587" gradientUnits="userSpaceOnUse">
<stop stop-color="#88A80D" stop-opacity="0"/>
<stop offset="0.5" stop-color="#88A80D" stop-opacity="0"/>
<stop offset="1" stop-color="#88A80D"/>
</linearGradient>
<linearGradient id="paint2_linear_206_528" x1="148.49" y1="306.358" x2="160.945" y2="287.255" gradientUnits="userSpaceOnUse">
<stop stop-color="#88A80D" stop-opacity="0"/>
<stop offset="0.5" stop-color="#88A80D" stop-opacity="0"/>
<stop offset="1" stop-color="#88A80D"/>
</linearGradient>
<linearGradient id="paint3_linear_206_528" x1="52.7283" y1="238.251" x2="82.9583" y2="212" gradientUnits="userSpaceOnUse">
<stop stop-color="#88A80D" stop-opacity="0"/>
<stop offset="0.5" stop-color="#88A80D" stop-opacity="0"/>
<stop offset="1" stop-color="#88A80D"/>
</linearGradient>
<linearGradient id="paint4_linear_206_528" x1="133.976" y1="191.103" x2="164.206" y2="164.868" gradientUnits="userSpaceOnUse">
<stop stop-color="#88A80D" stop-opacity="0"/>
<stop offset="0.5" stop-color="#88A80D" stop-opacity="0"/>
<stop offset="1" stop-color="#88A80D"/>
</linearGradient>
</defs>
</svg>
